<svg xmlns="http://www.w3.org/2000/svg" xml:space="preserve" width="2000" height="1500" viewBox="0 0 2000 1500" data-version="1" data-id="lg_7utLfgjEmZPYCkhZ7M" x="0" y="0"><rect width="2000" height="1500" id="background" stroke="transparent" fill="#ffffff"></rect><g id="outer-wrapper" data-padding="20" transform="matrix(2.642201153016266,0,0,2.642201153016266,-1642.2011530162658,-1231.6508647621995)"><g id="inner-wrapper" transform="matrix(0.964349376114082,0,0,0.964349376114082,10,2.0142602495543684)"><path fill="#0b82e6" d="M806.1566323364513 719.2807079482441A56.357 56.357 0 1 0 806.1566323364513 831.994707948244A56.357 56.357 0 1 0 806.1566323364513 719.2807079482441 "></path><rect width="435.057" height="108.48" x="412.3276323364513" y="321.39770794824403" fill="none" rx="0" ry="0" transform="translate(462.97 399.57)"></rect><path fill="#0b82e6" d="M892.3866323364513 805.3577079482441H884.8066323364512V745.0677079482441H904.1966323364512Q914.1266323364513 745.0677079482441 919.3866323364513 750.0877079482441Q924.6466323364513 755.0977079482441 924.6466323364513 763.697707948244Q924.6466323364513 772.187707948244 919.3866323364513 777.157707948244T904.1966323364512 782.127707948244H892.3866323364513ZM892.3866323364513 751.497707948244V775.5977079482441H904.1966323364512Q910.4866323364513 775.5977079482441 913.7266323364512 772.377707948244Q916.9666323364512 769.167707948244 916.9666323364512 763.697707948244Q916.9666323364512 758.127707948244 913.7266323364512 754.8177079482441Q910.4866323364512 751.497707948244 904.1966323364512 751.497707948244ZM973.0766323364512 805.3677079482441H966.5466323364512L965.5866323364513 795.2877079482441V775.6077079482441Q965.5866323364513 769.417707948244 962.9466323364513 766.7077079482441Q960.3066323364513 763.9877079482441 955.0266323364513 763.9877079482441Q952.0466323364512 763.9877079482441 949.6266323364513 764.8577079482441Q947.2066323364513 765.7177079482441 945.7866323364514 767.5177079482442T944.3666323364513 772.147707948244H936.0166323364513Q936.0166323364513 767.157707948244 938.4666323364513 764.1077079482441Q940.9166323364512 761.0677079482441 945.2066323364513 759.697707948244Q949.5066323364513 758.3277079482441 955.0266323364513 758.3277079482441Q960.3066323364512 758.3277079482441 964.3866323364513 760.1077079482441Q968.4666323364513 761.877707948244 970.7666323364513 765.7477079482439Q973.0766323364513 769.6077079482441 973.0766323364513 775.797707948244ZM950.8966323364513 806.517707948244Q945.2366323364512 806.517707948244 941.5366323364512 804.507707948244Q937.8466323364512 802.4877079482441 936.0166323364513 799.267707948244Q934.1966323364512 796.0577079482441 934.1966323364512 792.507707948244Q934.1966323364512 787.8477079482441 936.5266323364513 784.917707948244Q938.8466323364512 781.9877079482441 942.8866323364513 780.627707948244Q946.9166323364512 779.257707948244 951.9566323364512 779.257707948244Q955.5566323364512 779.257707948244 959.1766323364512 779.9777079482441Q962.8066323364512 780.6977079482441 966.2566323364513 781.9477079482441V786.647707948244Q963.3766323364513 785.4977079482442 959.7566323364513 784.8277079482441Q956.1266323364513 784.147707948244 953.1066323364513 784.147707948244Q948.4966323364513 784.147707948244 945.3266323364513 786.0477079482441Q942.1666323364512 787.947707948244 942.1666323364512 792.507707948244Q942.1666323364512 795.8677079482441 944.5866323364513 798.267707948244T952.3366323364513 800.667707948244Q956.0866323364513 800.667707948244 959.0866323364513 798.907707948244Q962.0866323364513 797.157707948244 963.8366323364513 794.517707948244T965.5866323364513 789.2377079482441H967.4066323364513Q967.4066323364513 793.8477079482441 965.4166323364512 797.7877079482441Q963.4266323364512 801.7177079482441 959.7266323364513 804.1177079482441Q956.0366323364512 806.517707948244 950.8966323364513 806.517707948244M1007.2066323364513 828.9877079482441Q1000.1466323364513 828.9877079482441 994.9666323364513 826.9877079482441Q989.7766323364513 824.997707948244 986.9266323364512 821.667707948244Q984.0666323364512 818.3277079482441 984.0666323364512 814.2977079482441Q984.0666323364512 808.9677079482441 987.9766323364513 806.157707948244T998.0866323364513 803.3477079482441L1002.2066323364513 805.9477079482441Q997.0266323364513 805.9477079482441 994.1966323364513 808.1077079482441T991.3666323364513 814.0077079482442T995.3966323364513 820.3477079482441Q999.4266323364512 822.937707948244 1007.2066323364513 822.937707948244Q1012.9666323364513 822.937707948244 1017.3066323364513 821.277707948244Q1021.6466323364513 819.627707948244 1024.0766323364514 816.957707948244Q1026.4966323364513 814.297707948244 1026.4966323364513 811.227707948244Q1026.4966323364513 809.067707948244 1024.9166323364514 807.5077079482439Q1023.3266323364513 805.947707948244 1020.0666323364513 805.947707948244H1002.2066323364513Q997.5566323364513 805.947707948244 994.1666323364512 804.5277079482439Q990.7866323364512 803.107707948244 988.9666323364513 800.8077079482439Q987.1366323364513 798.5077079482439 987.1366323364513 795.7677079482439Q987.1366323364513 792.8877079482439 988.7666323364513 790.867707948244Q990.4066323364513 788.857707948244 993.0166323364513 787.7977079482439Q995.6366323364513 786.7477079482439 998.6566323364513 786.7477079482439L1000.0966323364513 789.5277079482439Q998.6566323364513 789.5277079482439 997.1966323364513 790.1777079482439Q995.7266323364513 790.8277079482439 994.7466323364513 792.0977079482439T993.7666323364513 795.2877079482439Q993.7666323364513 797.4977079482439 995.5866323364513 798.987707948244Q997.4066323364513 800.467707948244 1002.2066323364513 800.467707948244H1020.0666323364513Q1026.5466323364512 800.467707948244 1030.2666323364513 803.207707948244T1033.9866323364513 810.8377079482439Q1033.9866323364513 815.3477079482439 1030.7666323364513 819.5077079482439Q1027.5566323364515 823.6577079482439 1021.5566323364513 826.3177079482439Q1015.5566323364513 828.987707948244 1007.2066323364513 828.987707948244M1008.5466323364512 791.927707948244Q1003.2666323364513 791.927707948244 999.0166323364513 789.8177079482439T992.2966323364512 783.9077079482439Q989.8266323364512 780.1177079482438 989.8266323364512 775.1277079482439Q989.8266323364512 770.0877079482439 992.2966323364512 766.2977079482439T999.0166323364513 760.417707948244T1008.5466323364512 758.327707948244Q1013.6866323364512 758.327707948244 1017.8866323364513 760.417707948244T1024.5766323364512 766.2977079482439Q1027.0766323364512 770.087707948244 1027.0766323364512 775.1277079482439Q1027.0766323364512 780.117707948244 1024.5766323364512 783.9077079482439Q1022.0866323364512 787.707707948244 1017.8866323364513 789.8177079482439T1008.5466323364512 791.927707948244M1008.5466323364512 786.5477079482439Q1013.8266323364512 786.5477079482439 1016.7566323364513 783.2877079482439T1019.6866323364512 775.1277079482439Q1019.6866323364512 770.0877079482439 1016.7566323364513 766.947707948244Q1013.8266323364512 763.7977079482439 1008.5466323364512 763.7977079482439Q1003.3166323364512 763.7977079482439 1000.3166323364512 766.947707948244Q997.3166323364512 770.0877079482439 997.3166323364512 775.1277079482439Q997.3166323364512 780.0277079482439 1000.3166323364512 783.2877079482439T1008.5466323364512 786.5477079482439M1023.6166323364513 765.6277079482439L1020.0666323364512 764.187707948244Q1020.0666323364512 760.1477079482439 1021.6466323364513 757.107707948244Q1023.2366323364512 754.0577079482439 1026.1666323364511 752.347707948244Q1029.0866323364512 750.647707948244 1033.1266323364512 750.647707948244L1032.5466323364512 758.0377079482439Q1028.226632336451 758.0377079482439 1025.9266323364513 759.887707948244Q1023.6166323364512 761.737707948244 1023.6166323364512 765.627707948244M1061.0966323364512 806.5177079482439Q1055.1466323364511 806.5177079482439 1050.4666323364513 803.467707948244Q1045.7866323364512 800.427707948244 1043.0766323364512 794.9977079482439Q1040.3566323364512 789.5777079482439 1040.3566323364512 782.5177079482439Q1040.3566323364512 774.987707948244 1043.0466323364512 769.5577079482439Q1045.7366323364513 764.1377079482439 1050.4166323364511 761.227707948244Q1055.0966323364512 758.327707948244 1061.0966323364512 758.327707948244Q1066.3266323364512 758.327707948244 1070.0266323364513 760.437707948244Q1073.7166323364513 762.547707948244 1075.976632336451 766.147707948244T1079.1166323364512 774.2877079482439Q1080.0066323364513 778.827707948244 1079.6266323364512 783.667707948244H1046.4066323364514V779.0677079482439H1074.6766323364513L1072.476632336451 780.5077079482439Q1072.6166323364512 777.667707948244 1072.1566323364514 774.8377079482439Q1071.706632336451 772.0077079482439 1070.456632336451 769.6277079482439Q1069.206632336451 767.2577079482439 1066.956632336451 765.8177079482439Q1064.6966323364513 764.3777079482439 1061.1966323364513 764.3777079482439Q1056.7766323364513 764.3777079482439 1053.7966323364512 766.6277079482439Q1050.8266323364512 768.8877079482439 1049.3366323364512 772.5577079482439T1047.8466323364514 780.5077079482439V783.5777079482439Q1047.8466323364514 788.3777079482439 1049.3166323364512 792.1677079482439Q1050.7766323364513 795.957707948244 1053.7066323364513 798.1677079482439T1061.0966323364514 800.3777079482438T1068.436632336451 798.2177079482439T1071.9466323364513 791.8277079482439H1079.7166323364513Q1078.996632336451 796.3877079482438 1076.456632336451 799.6777079482439T1069.976632336451 804.7477079482439Q1066.0366323364512 806.5177079482439 1061.0966323364512 806.5177079482439M1104.436632336451 805.3677079482438H1096.956632336451V752.3777079482438Q1096.956632336451 747.8177079482439 1098.706632336451 744.9077079482438Q1100.456632336451 742.0077079482439 1103.4066323364511 740.6177079482438T1110.0066323364513 739.2277079482438Q1111.976632336451 739.2277079482438 1114.016632336451 739.5077079482438Q1116.0566323364512 739.7977079482439 1118.0766323364512 740.3777079482438L1116.6366323364512 746.3277079482439Q1115.1966323364513 745.7477079482438 1113.7766323364513 745.4677079482437Q1112.3566323364512 745.1777079482438 1111.0666323364512 745.1777079482438Q1109.5266323364513 745.1777079482438 1107.996632336451 745.7477079482437Q1106.456632336451 746.3277079482438 1105.4466323364513 747.9077079482438Q1104.436632336451 749.4977079482437 1104.436632336451 752.4677079482437ZM1113.9466323364513 764.6677079482439H1089.4666323364513V759.477707948244H1113.9466323364513ZM1143.956632336451 806.5177079482439Q1137.766632336451 806.5177079482439 1132.936632336451 803.7877079482439Q1128.1166323364512 801.0477079482439 1125.3266323364512 795.6677079482439Q1122.5466323364512 790.2977079482439 1122.5466323364512 782.4277079482439Q1122.5466323364512 774.5077079482439 1125.3266323364512 769.1477079482439Q1128.1166323364512 763.7977079482439 1132.936632336451 761.0677079482439Q1137.766632336451 758.3277079482439 1143.956632336451 758.3277079482439Q1150.0966323364512 758.3277079482439 1154.9266323364513 761.0677079482439Q1159.7466323364513 763.7977079482439 1162.5066323364513 769.1477079482439Q1165.2666323364513 774.5077079482439 1165.2666323364513 782.4277079482439Q1165.2666323364513 790.2977079482439 1162.5066323364513 795.6677079482439Q1159.7466323364513 801.0477079482439 1154.9266323364513 803.7877079482439Q1150.0966323364512 806.5177079482439 1143.956632336451 806.5177079482439M1143.766632336451 799.987707948244Q1148.226632336451 799.987707948244 1151.3466323364512 797.857707948244Q1154.4666323364513 795.717707948244 1156.0766323364512 791.7877079482439Q1157.686632336451 787.847707948244 1157.686632336451 782.427707948244Q1157.686632336451 774.217707948244 1154.2766323364513 769.487707948244T1144.1466323364511 764.7577079482439Q1139.6366323364514 764.7577079482439 1136.5366323364512 766.8977079482439Q1133.4466323364513 769.0277079482439 1131.8366323364512 772.987707948244T1130.226632336451 782.4277079482439Q1130.226632336451 790.5377079482439 1133.6566323364514 795.2677079482439Q1137.0866323364512 799.987707948244 1143.7666323364513 799.987707948244M1187.2966323364512 805.3577079482438H1179.8066323364512V759.3777079482438H1187.2966323364512ZM1187.2966323364512 784.6177079482438H1184.9966323364513Q1184.9966323364513 775.8877079482438 1186.6766323364513 770.0977079482439Q1188.3566323364512 764.3177079482439 1191.5966323364512 761.457707948244Q1194.8366323364512 758.6077079482438 1199.4866323364513 758.6077079482438Q1201.0266323364513 758.6077079482438 1202.2966323364512 758.8177079482439Q1203.5666323364512 759.0377079482439 1204.8666323364512 759.4677079482439L1204.3866323364512 766.8577079482438Q1203.0466323364512 766.4277079482438 1201.456632336451 766.1177079482438Q1199.8766323364512 765.8077079482439 1198.6266323364512 765.8077079482439Q1194.5466323364512 765.8077079482439 1192.0466323364512 768.1377079482438Q1189.556632336451 770.4577079482438 1188.4266323364511 774.6877079482438Q1187.2966323364512 778.9077079482438 1187.2966323364512 784.6177079482438M1230.7366323364513 828.9877079482438Q1223.686632336451 828.9877079482438 1218.496632336451 826.9877079482438Q1213.3166323364512 824.9977079482438 1210.456632336451 821.6677079482438Q1207.6066323364512 818.3277079482439 1207.6066323364512 814.2977079482439Q1207.6066323364512 808.9677079482439 1211.516632336451 806.1577079482438T1221.6166323364512 803.3477079482439L1225.746632336451 805.9477079482439Q1220.5666323364512 805.9477079482439 1217.726632336451 808.1077079482438Q1214.8966323364511 810.2677079482439 1214.8966323364511 814.0077079482439T1218.9266323364511 820.3477079482439Q1222.966632336451 822.9377079482438 1230.736632336451 822.9377079482438Q1236.496632336451 822.9377079482438 1240.846632336451 821.2777079482438Q1245.186632336451 819.6277079482438 1247.6066323364512 816.9577079482438Q1250.036632336451 814.2977079482438 1250.036632336451 811.2277079482437Q1250.036632336451 809.0677079482438 1248.4466323364509 807.5077079482437Q1246.866632336451 805.9477079482438 1243.606632336451 805.9477079482438H1225.746632336451Q1221.086632336451 805.9477079482438 1217.706632336451 804.5277079482437T1212.496632336451 800.8077079482437Q1210.676632336451 798.5077079482437 1210.676632336451 795.7677079482437Q1210.676632336451 792.8877079482437 1212.306632336451 790.8677079482437Q1213.9366323364509 788.8577079482437 1216.556632336451 787.7977079482437Q1219.166632336451 786.7477079482437 1222.1966323364509 786.7477079482437L1223.636632336451 789.5277079482437Q1222.1966323364509 789.5277079482437 1220.726632336451 790.1777079482437Q1219.266632336451 790.8277079482436 1218.286632336451 792.0977079482436Q1217.2966323364508 793.3677079482436 1217.2966323364508 795.2877079482437Q1217.2966323364508 797.4977079482437 1219.126632336451 798.9877079482437Q1220.9466323364509 800.4677079482437 1225.746632336451 800.4677079482437H1243.606632336451Q1250.086632336451 800.4677079482437 1253.806632336451 803.2077079482438T1257.526632336451 810.8377079482436Q1257.526632336451 815.3477079482436 1254.306632336451 819.5077079482437Q1251.086632336451 823.6577079482437 1245.086632336451 826.3177079482437Q1239.086632336451 828.9877079482437 1230.7366323364508 828.9877079482437M1232.086632336451 791.9277079482438Q1226.806632336451 791.9277079482438 1222.556632336451 789.8177079482437T1215.836632336451 783.9077079482437Q1213.366632336451 780.1177079482436 1213.366632336451 775.1277079482437Q1213.366632336451 770.0877079482436 1215.836632336451 766.2977079482437T1222.556632336451 760.4177079482438T1232.086632336451 758.3277079482438Q1237.2166323364509 758.3277079482438 1241.4166323364511 760.4177079482438T1248.116632336451 766.2977079482437Q1250.6066323364512 770.0877079482437 1250.6066323364512 775.1277079482437Q1250.6066323364512 780.1177079482437 1248.116632336451 783.9077079482437Q1245.616632336451 787.7077079482438 1241.4166323364511 789.8177079482437T1232.086632336451 791.9277079482438M1232.086632336451 786.5477079482437Q1237.366632336451 786.5477079482437 1240.286632336451 783.2877079482437Q1243.2166323364509 780.0277079482437 1243.2166323364509 775.1277079482437Q1243.2166323364509 770.0877079482436 1240.286632336451 766.9477079482438Q1237.366632336451 763.7977079482437 1232.086632336451 763.7977079482437Q1226.846632336451 763.7977079482437 1223.846632336451 766.9477079482438Q1220.846632336451 770.0877079482436 1220.846632336451 775.1277079482437Q1220.846632336451 780.0277079482437 1223.846632336451 783.2877079482437T1232.086632336451 786.5477079482437M1247.156632336451 765.6277079482437L1243.6066323364512 764.1877079482438Q1243.6066323364512 760.1477079482437 1245.186632336451 757.1077079482437Q1246.766632336451 754.0577079482437 1249.696632336451 752.3477079482437Q1252.6266323364512 750.6477079482438 1256.6566323364511 750.6477079482438L1256.0866323364512 758.0377079482437Q1251.766632336451 758.0377079482437 1249.456632336451 759.8877079482438Q1247.1566323364511 761.7377079482437 1247.1566323364511 765.6277079482438M1284.6466323364511 806.5177079482437Q1278.686632336451 806.5177079482437 1274.0066323364513 803.4677079482437Q1269.3266323364512 800.4277079482438 1266.6166323364512 794.9977079482437Q1263.9066323364511 789.5777079482436 1263.9066323364511 782.5177079482437Q1263.9066323364511 774.9877079482437 1266.5966323364512 769.5577079482437Q1269.2866323364512 764.1377079482437 1273.9666323364513 761.2277079482437Q1278.6466323364511 758.3277079482438 1284.6466323364511 758.3277079482438Q1289.8766323364512 758.3277079482438 1293.5666323364512 760.4377079482438Q1297.266632336451 762.5477079482438 1299.5266323364513 766.1477079482438Q1301.7766323364513 769.7477079482437 1302.6666323364511 774.2877079482437T1303.1666323364511 783.6677079482438H1269.9566323364513V779.0677079482437H1298.2266323364513L1296.0166323364513 780.5077079482437Q1296.1666323364511 777.6677079482438 1295.7066323364513 774.8377079482436T1294.0066323364513 769.6277079482437Q1292.7566323364513 767.2577079482437 1290.4966323364513 765.8177079482437Q1288.2466323364513 764.3777079482437 1284.7366323364513 764.3777079482437Q1280.3266323364514 764.3777079482437 1277.3466323364514 766.6277079482437Q1274.3666323364514 768.8877079482437 1272.8866323364514 772.5577079482437Q1271.3966323364511 776.2277079482437 1271.3966323364511 780.5077079482437V783.5777079482436Q1271.3966323364511 788.3777079482437 1272.8566323364512 792.1677079482437Q1274.3266323364514 795.9577079482438 1277.2466323364513 798.1677079482437Q1280.1766323364513 800.3777079482436 1284.6466323364511 800.3777079482436Q1289.1066323364512 800.3777079482436 1291.9866323364513 798.2177079482436T1295.4866323364513 791.8277079482436H1303.2666323364513Q1302.5466323364512 796.3877079482436 1300.0066323364513 799.6777079482437Q1297.4566323364513 802.9677079482437 1293.5266323364513 804.7477079482437Q1289.5866323364512 806.5177079482437 1284.6466323364511 806.5177079482437 "></path><rect width="35.193" height="71.19" x="612.2596323364512" y="340.042707948244" fill="none" rx="0" ry="0" transform="translate(176.79 399.69)"></rect><path fill="#fff" d="M801.7766323364513 796.437707948244H796.7966323364512V756.8677079482441H809.5266323364513Q816.0466323364512 756.8677079482441 819.4966323364513 760.167707948244Q822.9466323364512 763.4577079482441 822.9466323364512 769.0977079482441Q822.9466323364512 774.667707948244 819.4966323364513 777.927707948244T809.5266323364513 781.187707948244H801.7766323364513ZM801.7766323364513 761.0977079482441V776.907707948244H809.5266323364513Q813.6566323364513 776.907707948244 815.7766323364513 774.7977079482441Q817.9066323364513 772.687707948244 817.9066323364513 769.0977079482441Q817.9066323364513 765.437707948244 815.7766323364513 763.2677079482442Q813.6566323364513 761.0977079482441 809.5266323364513 761.0977079482441Z " paint-order="stroke"></path></g><rect width="561" height="113" x="722.8542399180395" y="693.5" id="space-saver" fill="transparent" stroke="transparent"></rect></g></svg>